<svg xmlns="http://www.w3.org/2000/svg" xml:space="preserve" id="Layer_1" x="0" y="0" style="enable-background:new 0 0 106 120" version="1.1" viewBox="0 0 106 120"><style>.st0,.st1{fill:#fff}.st1{fill-rule:evenodd;clip-rule:evenodd}</style><path d="M56.7 57.3c-.9-.3-2.4-.4-3.7.7-1.3-1-2.8-1-3.7-.7-.7.3-1.3.5-2.4.5 1.1 2.3 3.4 3.9 6.1 3.9 2.7 0 5-1.6 6.1-3.9-1.1 0-1.7-.2-2.4-.5z" class="st0"/><path d="M53 0C34.6 0 19.6 15 19.6 33.4c0 15.8 11 29.1 25.8 32.5a25.16 25.16 0 0 1-10.9-32.7c.9 4.8 4 9 8.7 11.2-6-14.1-1.6-30.8 10.9-40-2.5 8.4 1.3 16.1 9.4 21.9 9.3 6.6 9.6 20.2 1.5 27.5 3.2-.8 6.3-2.5 8.5-5.3-1.4 7.2-5.9 13.6-12.8 17.3a33.44 33.44 0 0 0 25.8-32.5C86.4 15 71.5 0 53 0z" class="st0"/><path d="M52.3 111.4a8.6 8.6 0 1 1-8.6-8.6c4.7.1 8.6 3.9 8.6 8.6m-8.6-7.1c-3.9 0-7.1 3.2-7.1 7.1 0 3.9 3.2 7.1 7.1 7.1 3.9 0 7.1-3.2 7.1-7.1a7 7 0 0 0-7.1-7.1" class="st1"/><path d="M70.9 111.4a8.6 8.6 0 1 1-8.6-8.6c4.7.1 8.6 3.9 8.6 8.6m-8.6-7.1c-3.9 0-7.1 3.2-7.1 7.1 0 3.9 3.2 7.1 7.1 7.1 3.9 0 7.1-3.2 7.1-7.1 0-3.9-3.2-7.1-7.1-7.1M34.4 95a8.6 8.6 0 1 0 0 17.2h.7v-1.4h-.7c-3.9 0-7.1-3.2-7.1-7.1 0-3.9 3.2-7.1 7.1-7.1a7.13 7.13 0 0 1 2.2 13.9c-.1.5-.1 1-.1 1.5 3.7-1 6.4-4.3 6.4-8.3.1-4.9-3.7-8.7-8.5-8.7" class="st1"/><path d="M71.6 95c-4.5 0-8.2 3.5-8.5 7.9.5 0 1 .1 1.4.2.2-3.7 3.3-6.7 7.1-6.7 3.9 0 7.1 3.2 7.1 7.1a7.13 7.13 0 0 1-14.2 1c-.5-.2-1-.3-1.5-.3a8.58 8.58 0 0 0 17.1-.8c0-4.6-3.8-8.4-8.5-8.4M53 95c-4.5 0-8.2 3.5-8.5 7.9.5 0 1 .1 1.4.2.2-3.7 3.3-6.7 7.1-6.7a7.13 7.13 0 0 1 2.2 13.9c-.1.5-.1 1-.1 1.5 3.7-1 6.4-4.3 6.4-8.3.1-4.7-3.8-8.5-8.5-8.5" class="st1"/><path d="M53.7 111.4v-.8H53a7.2 7.2 0 0 1-7.1-6.1c-.5-.2-1-.3-1.5-.3.4 4.4 4.1 7.8 8.5 7.8h.7c.1-.1.1-.3.1-.6" class="st1"/><path d="M6 75.6c-.8-.4-1.6-.4-2.5-.4H.7v10.4h1.6c0-.6 0-1.2.2-1.8.5-.8 1.5-1.3 2.3-1.7.9-.4 1.9-.9 2.5-1.7.5-.7.7-1.7.5-2.6-.2-1-.8-1.8-1.8-2.2zm0 4c-.4.6-1 .9-1.6 1.2-.7.3-1.3.7-1.9 1.1v-5.2H4c.9 0 1.8.3 2.1 1.1.2.6.2 1.3-.1 1.8zM18 75.5c-.6-.3-1.2-.5-1.8-.5-1 0-2 .4-2.7 1.1-.5.6-.8 1.4-.8 2.1v7.3h1.6V82c.9-.1 2 0 2.8.5.8.6 1.1 1.3 1 2.9h1.6v-7c-.1-1.1-.6-2.3-1.7-2.9zm-3.8 5.1v-1.7c0-.3 0-.6.1-.9.2-.6.6-1.1 1.2-1.3.6-.2 1.3-.1 1.8.3s.8 1 .8 1.6v3.3c-1-1.2-2.5-1.5-3.9-1.3zM30.7 81.7c-.2-.1-.4-.2-.6-.2.5-.3 1-.6 1.4-1.1.3-.4.5-.9.6-1.5.1-1.1-.2-2.2-1.2-2.9-1.5-1.1-3.3-.7-5.9-.8v10.4h1.6v-.9c0-.7.3-1.4.9-1.7.6-.4 1.4-.4 2-.1.6.3 1 .9 1.1 1.6.1.4 0 .8 0 1.2h1.6c0-.6 0-1.2-.1-1.7 0-1-.6-1.8-1.4-2.3zm-2.5-5c1 0 2.1.5 2.2 1.6.1.5-.1 1.1-.4 1.5-.4.5-1 .7-1.5 1-.6.3-1.3.6-1.8 1.1v-5.2h1.5zM37.5 76.6c.5-.1 1.1-.2 1.6-.2v-1.2h-1.6v1.4zM37.5 77.5v8.1h1.6v-8.3c-.6 0-1.1.1-1.6.2zM49.9 80.6c-.6-.5-1.3-.7-2-1-.6-.2-1.4-.5-1.8-1-.4-.5-.3-1.3.1-1.7.5-.5 1.2-.6 1.8-.4.7.2 1.1.8 1.1 1.5h1.6c0-.8-.2-1.5-.8-2.1-.5-.5-1.2-.9-1.9-1-.8-.1-1.6 0-2.2.4-.6.4-1.2.9-1.4 1.6-.2.7-.2 1.5.2 2.1.4.7 1.1 1.1 1.8 1.4.8.3 1.7.5 2.4 1 .3.2.5.5.6.8.1.3.1.7-.1 1-.4.7-1.3 1-2.1.8-.9-.2-1.5-.9-1.5-1.8H44c0 .8.3 1.7.9 2.3.6.6 1.4.9 2.3 1 .9.1 1.8-.1 2.5-.6s1.1-1.2 1.2-2c.1-.8-.2-1.7-1-2.3zM65 80.8c.7-.9 1.4-1.9 1.2-3.1-.1-1.1-.9-2-1.8-2.4-1-.5-2.2-.4-3.2.1s-1.7 1.5-1.7 2.6c-.1 1.1.5 2.1 1.4 2.8l.9-1.2c-.7-.6-1-1.6-.4-2.4.5-.7 1.6-.9 2.4-.5.4.2.7.5.9.9.3.9-.3 1.8-.9 2.5-1.1 1.4-4 5-4.4 5.5h7.3v-1.5h-4.2l2.5-3.3zM80.3 76.6a5.7 5.7 0 0 0-6.2-1.1c-2.1 1-3.3 3.2-3.1 5.4.2 2.2 1.9 4.1 4 4.7 2.2.6 4.6-.3 5.9-2.1 1.5-2.1 1.2-5.2-.6-6.9zm-.4 5.3a3.7 3.7 0 0 1-3.7 2.3c-1.6-.1-2.9-1.2-3.4-2.7-.5-1.5.1-3.3 1.4-4.2 1.3-1 3.1-1 4.4-.1 1.4 1 2 3 1.3 4.7zM103.6 78v3.5c-.8-.6-1.7-.7-2.5-1.2-.7-.4-.9-1.1-.9-1.9v-3.2h-1.6v3.3c0 1.1.3 2.2 1.2 2.9.6.4 1.2.7 1.9.9.6.2 1.2.5 1.6 1 .5.5.3 1.8.4 2.3h1.6V78h-1.7zM92.2 80.8c.7-.9 1.4-1.9 1.2-3.1-.1-1.1-.9-2-1.8-2.4-1-.5-2.2-.4-3.2.1s-1.7 1.5-1.7 2.6c-.1 1.1.5 2.1 1.4 2.8l.9-1.2c-.7-.6-1-1.6-.4-2.4.5-.7 1.6-.9 2.4-.5.4.2.7.5.9.9.3.9-.3 1.8-.9 2.5-1.1 1.4-4 5-4.4 5.5h7.3v-1.5h-4.2l2.5-3.3z" class="st0"/></svg>